<svg xmlns="http://www.w3.org/2000/svg" width="24" height="24" viewBox="0 0 24 24" fill="none" stroke="currentColor" stroke-width="1" stroke-linecap="round" stroke-linejoin="round">
  <circle cx="12" cy="12" r="10.5" stroke-width="1.6" stroke-dasharray="5 0.4" stroke-linecap="butt" />
  <g transform="translate(3.00, 3.00) scale(0.18)" stroke="none" fill="currentColor">
    <path d="m85.988 47.109-2.8203-1.7891c0.73828-2.2812 0.89062-4.8906 1.2617-7.2383 0.69141-4.3984-1.2617-10.77-3.75-14.391-2.8789-4.1992-8.2617-7.5781-12.809-9.7109-7.8281-3.6484-16.648-4.0508-25.148-3.6914-4.25 0.17969-8.0391 0.32813-11.949 2.0898-11.031 4.9805-17.922 15.809-17.738 27.969 0.12891 8.2617 4.0781 18.5 11.031 23.469 1.0391 0.73828 2.2188 1.4805 4.5898 2.2188 2.3711 0.73828 4.5898 0.44141 5.0391 0.44141 1.4688 0 3.0312-0.26172 4.4219-0.73828 1.8281-0.64844 4.2109-2.4492 5.3008-4.0391 0.58203-0.87891 0.94141-1.8984 1.5312-2.7891 0.94922-1.4219 2.4805-2.3906 4.1289-2.8789 6.3398-1.8789 13.23 1.9102 19.648 1.8516 0.23047-0.011718 0.46875-0.011718 0.67188 0.10156 0.16016 0.078125 0.28125 0.21875 0.37891 0.37109 1.0703 1.5117 0.28906 2.9883-1.2695 3.5898-0.69141 0.26172-1.3906 0.51172-2.1289 0.53906-0.71094 0.019531-1.3984-0.32812-1.9883-0.51172-0.30859 0.16016-0.46094 3.1211-0.44141 3.5 0.17969 2.3789 3.0586 2.0898 4.7617 2.3398 0.12891 0.019531 0.26172 0.039062 0.39062 0.058594 1.0898 0.16797 2.1797 0.36719 3.2578 0.62891 0.69141 0.14844 1.3789 0.32812 2.0703 0.51953 0.80078 0.21875 1.6016 0.46875 2.3906 0.73828 0.30859 0.10938 0.60156 0.21875 0.87109 0.35156 1.2305 0.53906 2.0781 1.2812 2.9609 2.4492h1.9297c0.33984-5.2812 1.1016-10.77-0.58984-15.852 0 0 1.3086-2.9297 1.3281-2.9688 0.78906-1.7578 5.7188-4.6797 2.668-6.6289zm-13.297 6.1914c-0.80859-0.39844-1.4609-1.0508-2.1602-1.6094-1.1484-0.92188-2.4492-1.6094-3.6211-2.5-1.1719-0.87891-2.2383-2.0312-2.6289-3.4609-0.64844-2.3984 0.87891-5.1406 3.1797-5.8711 1.8516-0.58984 4.2305-1.7305 6.1719-0.78125 2.1484 1.0586 2.7617 4.7812 2.9883 7.3086 0.039062 0.35938 0.058594 0.69141 0.078125 0.98828 0.17969 2.3555-0.52734 7.6758-4.0078 5.9258z"/>
    <path d="m59.008 61.75c-0.015624-0.082031-0.042968-0.16016-0.089843-0.22656-0.10547-0.15234-0.28516-0.23047-0.45703-0.29297-1.6641-0.61328-3.9414-0.83984-5.6992-0.625-1.9922 0.24219-4.2227 0.92188-4.6836 3.1211-0.51562 2.4648-0.35156 5.8906-0.042969 8.4023 0.57812 4.6914 3.0312 8.3008 7.5586 9.8516 2.2695 0.77734 4.6719 1.1562 6.8867 2.0781 2.1484 0.89453 4.0508 2.2695 6.0508 3.4609 2 1.1875 4.1836 2.2188 6.5078 2.293 4.3008 0.14062 6.3555-3.6211 7.0039-7.3672 0.19531-1.1367 0.89062-4.7422-0.11328-5.4219-0.23438-0.16016-4.3867 0.24609-4.3906 0.27734 0 0-0.29687 1.4805-1.332 1.4805-2.9688 0.003906-5.1055-1.9414-7.4375-3.4648-1.7539-1.1484-3.4961-2.3242-5.2461-3.4766-2.6758-1.7578-5.1758-2.6094-4.8789-6.3477 0.089844-1.1484 0.35156-2.2773 0.37891-3.4297 0.003906-0.10547 0.003906-0.21094-0.015626-0.3125z"/>
    <rect x="69.098" y="64.559" width="3.2578" height="6.0742"/>
    <rect x="74.43" y="65.41" width="3.2578" height="6.0742"/>
    <rect x="64.82" y="71.801" width="3.2578" height="6.0742"/>
    <rect x="70.727" y="74.836" width="3.2578" height="6.0742"/>
  </g>
</svg>